<?xml version="1.0" encoding="UTF-8"?>
<svg xmlns="http://www.w3.org/2000/svg" xmlns:xlink="http://www.w3.org/1999/xlink" width="375pt" height="374.999991pt" viewBox="0 0 375 374.999991" version="1.2">
<defs>
<clipPath id="clip1">
  <path d="M 26.222656 219 L 57 219 L 57 250 L 26.222656 250 Z M 26.222656 219 "/>
</clipPath>
</defs>
<g id="surface1">
<path style=" stroke:none;fill-rule:nonzero;fill:rgb(97.24884%,61.569214%,61.569214%);fill-opacity:1;" d="M 164.472656 195.203125 C 164.472656 195.203125 121.824219 182.6875 46.171875 219.824219 L 55.671875 238.574219 C 55.671875 238.574219 105.972656 211.894531 158.457031 209.078125 L 164.472656 195.203125 "/>
<g clip-path="url(#clip1)" clip-rule="nonzero">
<path style=" stroke:none;fill-rule:nonzero;fill:rgb(97.24884%,61.569214%,61.569214%);fill-opacity:1;" d="M 55.589844 237.996094 C 54.726562 240.195312 53.660156 242.3125 52.410156 244.316406 C 51.226562 246.210938 49.789062 248.082031 47.75 249.003906 C 45.714844 249.929688 42.953125 249.585938 41.726562 247.714844 C 40.109375 245.25 41.882812 242.039062 43.617188 239.648438 C 41.257812 241.625 38.71875 243.679688 35.667969 244.097656 C 33.6875 244.367188 31.359375 243.679688 30.558594 241.851562 C 30 240.570312 30.339844 239.039062 31.085938 237.859375 C 31.832031 236.679688 32.941406 235.777344 34.023438 234.898438 C 35.082031 234.039062 36.140625 233.183594 37.195312 232.328125 C 35.335938 233.03125 33.40625 233.746094 31.421875 233.625 C 29.4375 233.507812 27.375 232.316406 26.890625 230.390625 C 26.257812 227.859375 28.480469 225.546875 30.675781 224.132812 C 36.386719 220.464844 43.433594 218.921875 50.15625 219.867188 C 50.746094 219.953125 51.355469 220.0625 51.839844 220.402344 C 52.761719 221.046875 52.976562 222.292969 53.1875 223.394531 C 53.695312 226.089844 54.613281 228.703125 55.898438 231.121094 C 56.40625 231.042969 55.082031 238.078125 55.589844 237.996094 "/>
</g>
<path style=" stroke:none;fill-rule:nonzero;fill:rgb(97.24884%,61.569214%,61.569214%);fill-opacity:1;" d="M 63.957031 291.488281 C 65.222656 292.003906 65.925781 291.953125 67.046875 290.8125 C 71.917969 283.847656 84.347656 266.847656 92.515625 262.660156 C 102.261719 257.660156 133.878906 266.859375 133.878906 266.859375 L 129.488281 244.203125 C 129.488281 244.203125 96.667969 237.660156 83.929688 244.394531 C 71.1875 251.128906 66.332031 275.175781 66.332031 275.175781 C 66.332031 275.175781 51.203125 239.710938 47.207031 253.898438 C 44.265625 264.339844 55.269531 281.011719 61.292969 289.101562 C 62.351562 290.289062 63.035156 291.109375 63.957031 291.488281 "/>
<path style=" stroke:none;fill-rule:nonzero;fill:rgb(97.24884%,61.569214%,61.569214%);fill-opacity:1;" d="M 306.136719 290.511719 C 304.867188 291.015625 304.164062 290.953125 303.054688 289.800781 C 298.273438 282.777344 286.042969 265.628906 277.925781 261.34375 C 268.238281 256.226562 236.511719 265.046875 236.511719 265.046875 L 241.179688 242.445312 C 241.179688 242.445312 274.074219 236.292969 286.734375 243.179688 C 299.390625 250.070312 303.960938 274.171875 303.960938 274.171875 C 303.960938 274.171875 319.515625 238.890625 323.339844 253.128906 C 326.152344 263.601562 314.953125 280.140625 308.828125 288.15625 C 307.757812 289.332031 307.066406 290.144531 306.136719 290.511719 "/>
<path style=" stroke:none;fill-rule:nonzero;fill:rgb(97.24884%,61.569214%,61.569214%);fill-opacity:1;" d="M 213.707031 188.242188 C 213.707031 188.242188 257.167969 178.9375 329.835938 221.613281 L 318.964844 239.605469 C 318.964844 239.605469 270.796875 209.25 218.667969 202.527344 L 213.707031 188.242188 "/>
<path style=" stroke:none;fill-rule:nonzero;fill:rgb(98.429871%,76.469421%,77.249146%);fill-opacity:1;" d="M 284.664062 180.328125 C 281.078125 176.125 276.410156 173.011719 271.808594 169.957031 C 274.195312 157.652344 272.890625 144.105469 265.5625 133.929688 C 258.238281 123.753906 244.050781 118.105469 232.472656 122.941406 C 229.589844 115.722656 220.679688 112.921875 212.898438 113.125 C 206.015625 113.304688 199.210938 115.203125 193.15625 118.472656 C 187.097656 115.203125 180.296875 113.304688 173.414062 113.125 C 165.632812 112.921875 156.722656 115.722656 153.835938 122.941406 C 142.261719 118.105469 128.074219 123.753906 120.75 133.929688 C 113.421875 144.105469 112.113281 157.652344 114.503906 169.957031 C 109.898438 173.011719 105.234375 176.125 101.648438 180.328125 C 98.0625 184.527344 95.636719 190.035156 96.347656 195.511719 C 96.960938 200.210938 99.777344 204.347656 103.039062 207.78125 C 104.277344 209.085938 105.644531 210.417969 106.054688 212.164062 C 106.371094 213.523438 106.058594 214.941406 105.761719 216.304688 C 104.117188 223.851562 102.980469 231.675781 104.347656 239.277344 C 105.71875 246.878906 109.949219 254.289062 116.796875 257.878906 C 118.960938 259.011719 121.351562 259.757812 123.285156 261.25 C 125.097656 262.652344 126.378906 264.613281 127.824219 266.390625 C 136.371094 276.878906 152.066406 280.832031 164.566406 275.644531 C 172.238281 282.394531 184.257812 283.636719 193.15625 278.613281 C 202.054688 283.636719 214.074219 282.394531 221.742188 275.644531 C 234.246094 280.832031 249.941406 276.878906 258.484375 266.390625 C 259.933594 264.613281 261.214844 262.652344 263.027344 261.25 C 264.960938 259.757812 267.351562 259.011719 269.515625 257.878906 C 276.359375 254.289062 280.589844 246.878906 281.960938 239.277344 C 283.332031 231.675781 282.195312 223.851562 280.550781 216.304688 C 280.253906 214.941406 279.9375 213.523438 280.257812 212.164062 C 280.667969 210.417969 282.035156 209.085938 283.273438 207.78125 C 286.535156 204.347656 289.351562 200.210938 289.960938 195.511719 C 290.671875 190.035156 288.25 184.527344 284.664062 180.328125 "/>
<path style=" stroke:none;fill-rule:nonzero;fill:rgb(97.648621%,67.83905%,68.238831%);fill-opacity:1;" d="M 221.742188 275.644531 C 234.246094 280.832031 249.941406 276.878906 258.484375 266.390625 C 259.933594 264.613281 261.214844 262.652344 263.027344 261.25 C 264.960938 259.757812 267.351562 259.011719 269.515625 257.878906 C 276.359375 254.289062 280.589844 246.878906 281.960938 239.277344 C 283.332031 231.675781 282.195312 223.851562 280.550781 216.304688 C 280.253906 214.941406 279.9375 213.523438 280.257812 212.164062 C 280.667969 210.417969 282.035156 209.085938 283.273438 207.78125 C 286.535156 204.347656 289.351562 200.210938 289.960938 195.511719 C 290.671875 190.035156 288.25 184.527344 284.664062 180.328125 C 281.078125 176.125 276.410156 173.011719 271.808594 169.957031 C 274.195312 157.652344 272.890625 144.105469 265.5625 133.929688 C 258.238281 123.753906 244.050781 118.105469 232.472656 122.941406 C 231.683594 120.96875 230.417969 119.351562 228.871094 118.007812 C 228.542969 120.148438 227.90625 122.238281 226.898438 124.164062 C 236.960938 129.886719 243.566406 141.222656 243.578125 152.789062 C 243.585938 164.359375 236.996094 175.707031 226.941406 181.445312 C 232.160156 188.261719 233.425781 197.894531 230.148438 205.828125 C 226.867188 213.757812 219.171875 219.695312 210.660156 220.851562 C 210.441406 231.269531 203.785156 241.289062 194.261719 245.535156 C 184.734375 249.78125 172.828125 248.046875 164.917969 241.253906 C 156.417969 247.117188 144.109375 246.742188 135.980469 240.375 C 127.851562 234.003906 124.554688 222.152344 128.230469 212.507812 C 118.050781 208.601562 107.5625 203.585938 101.660156 194.425781 C 99.925781 191.730469 98.804688 188.582031 98.308594 185.351562 C 96.726562 188.519531 95.894531 192.023438 96.347656 195.511719 C 96.960938 200.210938 99.777344 204.347656 103.039062 207.78125 C 104.277344 209.085938 105.644531 210.417969 106.054688 212.164062 C 106.371094 213.523438 106.058594 214.941406 105.761719 216.304688 C 104.117188 223.851562 102.980469 231.675781 104.347656 239.277344 C 105.71875 246.878906 109.949219 254.289062 116.796875 257.878906 C 118.960938 259.011719 121.351562 259.757812 123.285156 261.25 C 125.097656 262.652344 126.378906 264.613281 127.824219 266.390625 C 136.371094 276.878906 152.066406 280.832031 164.566406 275.644531 C 172.238281 282.394531 184.257812 283.636719 193.15625 278.613281 C 202.054688 283.636719 214.074219 282.394531 221.742188 275.644531 "/>
<path style=" stroke:none;fill-rule:nonzero;fill:rgb(99.21875%,86.669922%,87.059021%);fill-opacity:1;" d="M 116.796875 257.878906 C 117.246094 258.113281 117.707031 258.324219 118.167969 258.535156 L 108.519531 249.480469 C 109.398438 251.007812 110.421875 252.449219 111.523438 253.839844 C 113.0625 255.4375 114.804688 256.832031 116.796875 257.878906 "/>
<path style=" stroke:none;fill-rule:nonzero;fill:rgb(99.21875%,86.669922%,87.059021%);fill-opacity:1;" d="M 280.550781 216.304688 C 280.253906 214.941406 279.9375 213.523438 280.257812 212.164062 C 280.667969 210.417969 282.035156 209.085938 283.273438 207.78125 C 286.535156 204.347656 289.351562 200.210938 289.960938 195.511719 C 290.671875 190.035156 288.25 184.527344 284.664062 180.328125 C 281.078125 176.125 276.410156 173.011719 271.808594 169.957031 C 274.195312 157.652344 272.890625 144.105469 265.5625 133.929688 C 258.238281 123.753906 244.050781 118.105469 232.472656 122.941406 C 229.589844 115.722656 220.679688 112.921875 212.898438 113.125 C 206.015625 113.304688 199.210938 115.203125 193.15625 118.472656 C 187.097656 115.203125 180.296875 113.304688 173.414062 113.125 C 165.632812 112.921875 156.722656 115.722656 153.835938 122.941406 C 142.261719 118.105469 128.074219 123.753906 120.75 133.929688 C 113.421875 144.105469 112.113281 157.652344 114.503906 169.957031 C 109.898438 173.011719 105.234375 176.125 101.648438 180.328125 C 98.0625 184.527344 95.636719 190.035156 96.347656 195.511719 C 96.960938 200.210938 99.777344 204.347656 103.039062 207.78125 C 104.277344 209.085938 105.644531 210.417969 106.054688 212.164062 C 106.371094 213.523438 106.058594 214.941406 105.761719 216.304688 C 104.117188 223.851562 102.980469 231.675781 104.347656 239.277344 C 104.949219 242.59375 106.121094 245.851562 107.789062 248.792969 L 108.519531 249.480469 C 107.171875 247.136719 106.089844 244.648438 105.378906 242.015625 C 102.683594 232.046875 105.855469 220.289062 114.28125 214.304688 C 110.992188 208.011719 107.71875 201.234375 108.363281 194.167969 C 109.007812 187.101562 115.242188 180.0625 122.246094 181.261719 C 116.871094 170.375 115.351562 156.6875 121.835938 146.421875 C 128.320312 136.15625 144.386719 132.097656 153.121094 140.535156 C 153.046875 137.679688 152.96875 134.824219 152.894531 131.964844 C 158.519531 128.339844 164.496094 124.824219 171.144531 124.015625 C 177.792969 123.203125 185.296875 125.789062 188.34375 131.746094 C 198.246094 122.546875 217.070312 127.046875 221.730469 139.726562 C 231.027344 131.441406 246.269531 130.820312 256.210938 138.335938 C 266.148438 145.84375 269.699219 160.664062 264.246094 171.859375 C 278.957031 174.734375 286.75 195.054688 277.722656 207.011719 C 275.535156 209.910156 272.488281 212.609375 272.296875 216.234375 C 272.140625 219.195312 273.96875 221.835938 275.113281 224.570312 C 278.765625 233.277344 274.667969 244.460938 266.25 248.753906 C 263.808594 250 261.007812 250.777344 259.148438 252.789062 C 257.371094 254.714844 256.78125 257.414062 255.765625 259.828125 C 251.039062 271.035156 238.054688 275.03125 225.578125 276.902344 C 237.3125 279.953125 250.792969 275.832031 258.484375 266.390625 C 259.933594 264.613281 261.214844 262.652344 263.027344 261.25 C 264.960938 259.757812 267.351562 259.011719 269.515625 257.878906 C 276.359375 254.289062 280.589844 246.878906 281.960938 239.277344 C 283.332031 231.675781 282.195312 223.851562 280.550781 216.304688 "/>
<path style=" stroke:none;fill-rule:nonzero;fill:rgb(97.24884%,61.569214%,61.569214%);fill-opacity:1;" d="M 194.214844 257.800781 C 194.40625 256.695312 194.1875 255.207031 193.183594 254.496094 C 173.074219 240.21875 182.480469 215.742188 194.148438 199.40625 C 194.855469 198.417969 195.332031 196.960938 194.449219 195.867188 C 187.984375 187.867188 185.859375 179.59375 187.765625 169.410156 C 188.484375 165.574219 193.789062 159.957031 193.453125 155.65625 C 193.082031 150.921875 191.050781 147.292969 189.382812 142.871094 C 186.195312 134.40625 188.910156 125.804688 193.257812 118.417969 C 193.222656 118.4375 193.191406 118.453125 193.15625 118.472656 C 192.464844 118.097656 191.757812 117.746094 191.050781 117.410156 C 183.683594 126.363281 183.488281 139.433594 188.203125 150.273438 C 191.105469 156.945312 186.367188 159.550781 184.433594 164.761719 C 182.484375 170.015625 181.769531 174.800781 181.882812 180.347656 C 182.0625 189.425781 189.980469 194.964844 184.539062 203.003906 C 174.890625 217.257812 169.261719 240.84375 182.984375 254.738281 C 188.851562 260.683594 186.3125 272.074219 188.867188 280.238281 C 188.886719 280.296875 188.910156 280.355469 188.929688 280.414062 C 190.386719 279.9375 191.816406 279.371094 193.15625 278.613281 C 194.34375 279.285156 195.59375 279.824219 196.875 280.273438 C 193.410156 273.398438 192.921875 265.269531 194.214844 257.800781 "/>
<path style=" stroke:none;fill-rule:nonzero;fill:rgb(97.24884%,61.569214%,61.569214%);fill-opacity:1;" d="M 165.90625 247.457031 C 166 247.207031 165.714844 246.953125 165.507812 247.171875 C 158.292969 254.945312 157.113281 266.703125 160.109375 277.070312 C 161.351562 276.773438 162.574219 276.390625 163.773438 275.933594 C 160.921875 267.074219 162.097656 257.613281 165.90625 247.457031 "/>
<path style=" stroke:none;fill-rule:nonzero;fill:rgb(97.24884%,61.569214%,61.569214%);fill-opacity:1;" d="M 138.410156 215.933594 C 139.21875 216.25 139.8125 215.1875 139.046875 214.730469 C 128.769531 208.59375 116.910156 207.351562 105.703125 211.230469 C 105.839844 211.535156 105.976562 211.835938 106.054688 212.164062 C 106.308594 213.253906 106.15625 214.382812 105.929688 215.492188 C 115.648438 210.34375 128.863281 212.171875 138.410156 215.933594 "/>
<path style=" stroke:none;fill-rule:nonzero;fill:rgb(97.24884%,61.569214%,61.569214%);fill-opacity:1;" d="M 113.015625 172.554688 C 120.644531 174.230469 126.378906 179.980469 134.125 181.226562 C 134.550781 181.292969 134.738281 180.765625 134.382812 180.535156 C 128.726562 176.929688 121.660156 171.800781 114.253906 168.34375 C 114.34375 168.878906 114.398438 169.421875 114.503906 169.957031 C 113.371094 170.707031 112.234375 171.464844 111.113281 172.238281 C 111.746094 172.335938 112.375 172.414062 113.015625 172.554688 "/>
<path style=" stroke:none;fill-rule:nonzero;fill:rgb(97.24884%,61.569214%,61.569214%);fill-opacity:1;" d="M 156.023438 119.480469 C 155.140625 120.507812 154.363281 121.628906 153.835938 122.941406 C 152.800781 122.507812 151.738281 122.191406 150.664062 121.921875 C 150.683594 122.25 150.695312 122.585938 150.722656 122.910156 C 151.445312 131.179688 154.144531 145.113281 163.289062 147.949219 C 163.402344 147.984375 163.46875 147.851562 163.421875 147.761719 C 159.402344 140.246094 157.0625 134.074219 155.988281 125.519531 C 155.707031 123.28125 155.757812 121.308594 156.023438 119.480469 "/>
<path style=" stroke:none;fill-rule:nonzero;fill:rgb(97.24884%,61.569214%,61.569214%);fill-opacity:1;" d="M 232.476562 122.945312 C 232.132812 122.085938 231.691406 121.300781 231.191406 120.566406 C 230.71875 121.164062 230.265625 121.742188 229.859375 122.265625 C 224.660156 128.976562 220.855469 138.476562 221.078125 147.027344 C 221.089844 147.453125 221.707031 147.492188 221.816406 147.09375 C 224.0625 138.585938 226.53125 131.324219 232.074219 124.296875 C 232.550781 123.691406 233.066406 123.121094 233.578125 122.546875 C 233.210938 122.679688 232.839844 122.789062 232.476562 122.945312 "/>
<path style=" stroke:none;fill-rule:nonzero;fill:rgb(97.24884%,61.569214%,61.569214%);fill-opacity:1;" d="M 271.808594 169.957031 C 272.035156 168.800781 272.191406 167.625 272.347656 166.453125 C 270.675781 167.152344 268.964844 167.78125 267.171875 168.28125 C 258.242188 170.773438 249 169.644531 240.078125 171.671875 C 240.015625 171.6875 240.03125 171.773438 240.085938 171.789062 C 249.371094 174.90625 262.640625 174.863281 273.574219 171.144531 C 272.984375 170.75 272.398438 170.347656 271.808594 169.957031 "/>
<path style=" stroke:none;fill-rule:nonzero;fill:rgb(97.24884%,61.569214%,61.569214%);fill-opacity:1;" d="M 276.996094 202.90625 C 266.324219 199.59375 252.332031 200.09375 243.921875 208.300781 C 243.875 208.347656 243.933594 208.414062 243.988281 208.402344 C 253.191406 206.183594 260.925781 204.410156 270.382812 206.769531 C 274.105469 207.699219 277.453125 209.308594 280.539062 211.421875 C 281.109375 210.035156 282.222656 208.890625 283.273438 207.78125 C 283.691406 207.34375 284.101562 206.890625 284.5 206.429688 C 281.78125 204.773438 279.015625 203.53125 276.996094 202.90625 "/>
<path style=" stroke:none;fill-rule:nonzero;fill:rgb(97.24884%,61.569214%,61.569214%);fill-opacity:1;" d="M 260.15625 248.03125 C 255.007812 242.046875 246.304688 233.859375 237.625 236.414062 C 237.238281 236.527344 237.140625 237.15625 237.546875 237.320312 C 246.039062 240.753906 252.113281 245.460938 257.457031 252.984375 C 259.363281 255.679688 260.46875 259.128906 261.71875 262.4375 C 262.125 262.015625 262.558594 261.613281 263.027344 261.25 C 264.378906 260.207031 265.957031 259.527344 267.523438 258.824219 C 265.488281 254.625 262.417969 250.65625 260.15625 248.03125 "/>
<path style=" stroke:none;fill-rule:nonzero;fill:rgb(97.24884%,61.569214%,61.569214%);fill-opacity:1;" d="M 217.375 250.742188 C 216.949219 250.199219 215.949219 250.382812 216.007812 251.175781 C 216.617188 259.511719 220.042969 267.472656 221.671875 275.695312 C 221.695312 275.675781 221.722656 275.664062 221.746094 275.644531 C 223.808594 276.5 225.964844 277.082031 228.15625 277.453125 C 226.730469 267.3125 222.433594 257.195312 217.375 250.742188 "/>
<path style=" stroke:none;fill-rule:nonzero;fill:rgb(62.748718%,32.939148%,32.548523%);fill-opacity:1;" d="M 175.648438 190.0625 C 175.648438 198.964844 169.046875 206.179688 160.898438 206.179688 C 152.753906 206.179688 146.148438 198.964844 146.148438 190.0625 C 146.148438 181.164062 152.753906 173.949219 160.898438 173.949219 C 169.046875 173.949219 175.648438 181.164062 175.648438 190.0625 "/>
<path style=" stroke:none;fill-rule:nonzero;fill:rgb(99.21875%,86.669922%,87.059021%);fill-opacity:1;" d="M 171.734375 190.066406 C 171.734375 196.601562 166.882812 201.902344 160.898438 201.902344 C 154.914062 201.902344 150.066406 196.601562 150.066406 190.066406 C 150.066406 183.527344 154.914062 178.226562 160.898438 178.226562 C 166.882812 178.226562 171.734375 183.527344 171.734375 190.066406 "/>
<path style=" stroke:none;fill-rule:nonzero;fill:rgb(62.748718%,32.939148%,32.548523%);fill-opacity:1;" d="M 224.96875 190.066406 C 224.96875 198.964844 218.363281 206.179688 210.21875 206.179688 C 202.074219 206.179688 195.46875 198.964844 195.46875 190.066406 C 195.46875 181.164062 202.074219 173.949219 210.21875 173.949219 C 218.363281 173.949219 224.96875 181.164062 224.96875 190.066406 "/>
<path style=" stroke:none;fill-rule:nonzero;fill:rgb(99.21875%,86.669922%,87.059021%);fill-opacity:1;" d="M 221.050781 190.066406 C 221.050781 196.601562 216.203125 201.902344 210.21875 201.902344 C 204.234375 201.902344 199.382812 196.601562 199.382812 190.066406 C 199.382812 183.527344 204.234375 178.226562 210.21875 178.226562 C 216.203125 178.226562 221.050781 183.527344 221.050781 190.066406 "/>
<path style=" stroke:none;fill-rule:nonzero;fill:rgb(62.748718%,32.939148%,32.548523%);fill-opacity:1;" d="M 167.214844 250.628906 C 167.214844 250.628906 184.070312 236.40625 198.378906 251.667969 C 198.378906 251.667969 206.886719 245.722656 202.246094 233.492188 C 195.058594 214.554688 169.949219 217.679688 164.539062 235.71875 C 160.46875 249.273438 167.214844 250.628906 167.214844 250.628906 "/>
<path style=" stroke:none;fill-rule:nonzero;fill:rgb(97.24884%,61.569214%,61.569214%);fill-opacity:1;" d="M 319.089844 239.035156 C 319.789062 241.289062 320.691406 243.480469 321.789062 245.570312 C 322.828125 247.550781 324.121094 249.519531 326.085938 250.59375 C 328.046875 251.664062 330.824219 251.53125 332.1875 249.757812 C 333.984375 247.421875 332.457031 244.082031 330.90625 241.574219 C 333.113281 243.71875 335.488281 245.957031 338.5 246.601562 C 340.453125 247.019531 342.828125 246.507812 343.761719 244.742188 C 344.417969 243.503906 344.191406 241.953125 343.535156 240.722656 C 342.878906 239.488281 341.84375 238.507812 340.828125 237.550781 C 339.835938 236.617188 338.847656 235.683594 337.855469 234.75 C 339.65625 235.589844 341.527344 236.445312 343.515625 236.472656 C 345.503906 236.503906 347.652344 235.46875 348.273438 233.585938 C 349.097656 231.109375 347.054688 228.636719 344.972656 227.066406 C 339.550781 222.980469 332.636719 220.917969 325.859375 221.359375 C 325.269531 221.398438 324.652344 221.460938 324.140625 221.765625 C 323.175781 222.339844 322.867188 223.566406 322.574219 224.652344 C 321.867188 227.296875 320.757812 229.835938 319.296875 232.15625 C 318.796875 232.035156 319.589844 239.152344 319.089844 239.035156 "/>
<path style=" stroke:none;fill-rule:nonzero;fill:rgb(95.289612%,36.859131%,36.468506%);fill-opacity:1;" d="M 215.542969 269.273438 C 217.824219 266.605469 216.863281 262.472656 215.167969 259.402344 C 209.570312 249.265625 197.703125 243.753906 186.132812 243.136719 C 182.90625 242.96875 179.433594 243.199219 176.855469 245.144531 C 181.703125 250.339844 185.546875 256.40625 190.417969 261.582031 C 195.292969 266.753906 201.597656 271.140625 208.699219 271.523438 C 211.183594 271.65625 213.925781 271.164062 215.542969 269.273438 "/>
<path style=" stroke:none;fill-rule:nonzero;fill:rgb(96.078491%,45.878601%,45.489502%);fill-opacity:1;" d="M 207.652344 261.730469 C 202.839844 261.332031 198.152344 259.535156 194.308594 256.609375 C 189.097656 252.652344 185.386719 246.703125 179.554688 243.78125 C 178.59375 244.09375 177.675781 244.527344 176.855469 245.144531 C 181.703125 250.339844 185.546875 256.40625 190.421875 261.582031 C 195.292969 266.753906 201.597656 271.140625 208.699219 271.519531 C 211.1875 271.65625 213.925781 271.164062 215.542969 269.273438 C 217.683594 266.769531 216.960938 262.984375 215.460938 259.988281 C 213.324219 261.410156 210.300781 261.945312 207.652344 261.730469 "/>
<path style=" stroke:none;fill-rule:nonzero;fill:rgb(62.748718%,32.939148%,32.548523%);fill-opacity:1;" d="M 154.777344 181.59375 L 169.355469 194.886719 L 165.550781 198.054688 L 153.824219 186.023438 L 154.777344 181.59375 "/>
<path style=" stroke:none;fill-rule:nonzero;fill:rgb(62.748718%,32.939148%,32.548523%);fill-opacity:1;" d="M 163.96875 182.226562 L 153.828125 193.9375 L 158.582031 197.417969 L 168.40625 184.441406 L 163.96875 182.226562 "/>
<path style=" stroke:none;fill-rule:nonzero;fill:rgb(62.748718%,32.939148%,32.548523%);fill-opacity:1;" d="M 204.195312 182.152344 L 218.773438 195.449219 L 214.96875 198.613281 L 203.246094 186.582031 L 204.195312 182.152344 "/>
<path style=" stroke:none;fill-rule:nonzero;fill:rgb(62.748718%,32.939148%,32.548523%);fill-opacity:1;" d="M 213.386719 182.785156 L 203.246094 194.496094 L 208 197.980469 L 217.824219 185 L 213.386719 182.785156 "/>
<path style=" stroke:none;fill-rule:nonzero;fill:rgb(62.748718%,32.939148%,32.548523%);fill-opacity:1;" d="M 109.523438 126.5625 C 109.523438 126.5625 69.269531 125.933594 82.480469 144.15625 C 95.6875 162.375 198.84375 159.234375 198.84375 159.234375 C 198.84375 159.234375 91.535156 154.378906 85.277344 140.757812 C 81.480469 132.5 89.398438 130.332031 109.523438 126.5625 "/>
<path style=" stroke:none;fill-rule:nonzero;fill:rgb(62.748718%,32.939148%,32.548523%);fill-opacity:1;" d="M 182.234375 149.308594 C 182.234375 149.308594 295.820312 154.222656 293.359375 140.960938 C 290.902344 127.699219 270.742188 128.679688 270.742188 128.679688 C 270.742188 128.679688 301.71875 126.222656 296.800781 141.941406 C 291.882812 157.660156 182.234375 149.308594 182.234375 149.308594 "/>
<path style=" stroke:none;fill-rule:nonzero;fill:rgb(62.748718%,32.939148%,32.548523%);fill-opacity:1;" d="M 208.785156 103.140625 C 208.785156 103.140625 130.113281 92.824219 103.5625 113.945312 C 103.5625 113.945312 141.421875 99.699219 208.785156 103.140625 "/>
</g>
</svg>
